<svg height="800px" width="800px" version="1.1" id="_x32_" xmlns="http://www.w3.org/2000/svg" xmlns:xlink="http://www.w3.org/1999/xlink" 
	 viewBox="0 0 512 512"  xml:space="preserve">
<style type="text/css">
	.st0{fill:#000000;}
</style>
<g>
	<path class="st0" d="M421.555,90.297c-0.841-3.541-2.333-6.952-4.146-10.105l-0.02-0.026c-0.959-1.662-1.932-3.095-3.16-4.882
		c-4.218-6.064-11.195-15.296-17.28-23.253c-3.049-3.988-5.848-7.602-7.878-10.224V0H122.929v41.808
		c-2.608,3.364-6.458,8.351-10.525,13.693c-3.582,4.704-7.294,9.639-10.428,13.916c-1.564,2.142-2.983,4.12-4.205,5.874
		c-1.229,1.787-2.202,3.22-3.161,4.882c-1.82,3.167-3.324,6.577-4.166,10.124c-0.854,3.548-0.979,6.787-0.979,9.442
		c0.007,2.706,0.112,5.072,0.112,8.055c0,9.968,0,317.962,0,330.919c0.026,7.95,1.038,16.59,3.784,25
		c1.4,4.205,3.239,8.384,6.006,12.385c2.752,3.962,6.603,7.898,11.984,10.474c2.858,1.406,3.942,2.438,5.065,3.686
		c0.828,0.953,1.636,2.155,2.78,3.995c0.861,1.366,1.892,3.094,3.404,5.132c2.208,3.016,5.907,6.833,10.933,9.244
		c5.006,2.451,10.572,3.378,16.367,3.371h212.198c3.462,0,6.767-0.316,9.986-1.091c2.806-0.677,5.546-1.728,7.997-3.134
		c4.337-2.444,7.457-5.841,9.441-8.561c2.99-4.179,4.252-6.774,5.566-8.358c1.314-1.584,2.286-2.654,5.565-4.284
		c5.375-2.576,9.225-6.512,11.978-10.474c4.12-6.012,6.281-12.378,7.754-18.726c1.426-6.347,2.03-12.701,2.036-18.66
		c0-12.957,0-320.952,0-330.919c0-2.989,0.105-5.361,0.112-8.062C422.534,97.078,422.409,93.846,421.555,90.297z M153.876,30.947
		h204.248v19.409H153.876V30.947z M120.682,442.084c-0.065-1.143-0.157-2.3-0.157-3.37c0-12.957,0-320.952,0-330.919
		c0-3.666-0.118-6.406-0.112-8.055c0-1.696,0.098-2.076,0.125-2.214c0.046-0.145,0.098-0.493,0.932-1.985
		c0.033-0.072,0.762-1.222,1.735-2.614c3.509-5.066,10.48-14.324,16.426-22.084c1.991-2.602,3.778-4.921,5.408-7.03h147.88
		c-10.532,38.03-8.436,99.536,2.622,197.999c8.857,78.826-20.539,145.502-43.214,180.273H120.682z M387.218,458.432l-0.368,0.466
		c-6.308,3.055-11.262,7.122-14.665,11.098c-2.628,3.042-4.396,5.887-5.638,7.878c-0.933,1.498-1.583,2.51-1.938,2.976v0.007
		c-0.381,0.078-1.104,0.197-2.51,0.197H149.901c-1.36,0-2.109-0.112-2.497-0.197c-0.216-0.283-0.539-0.723-1.045-1.538
		c-1.268-1.958-3.291-5.605-6.78-9.593c-3.39-3.896-8.272-7.845-14.435-10.835c-0.092-0.098-0.519-0.572-1.058-1.63
		c-0.256-0.48-0.513-1.07-0.775-1.721h265.333C388.124,456.822,387.599,457.899,387.218,458.432z M391.476,107.794
		c0,9.968,0,317.962,0,330.919c0.006,1.078-0.046,2.221-0.118,3.37h-72.912c16.236-37.589,13.64-112.354,8.476-144.496
		c-24.81-154.398-4.567-214.13,6.406-233.776h33.634c3.72,4.816,8.7,11.301,13.266,17.379c2.563,3.423,4.98,6.689,6.873,9.336
		c0.946,1.314,1.767,2.484,2.378,3.39c0.611,0.894,1.045,1.59,1.058,1.636l-0.013-0.026c0.841,1.492,0.894,1.846,0.933,1.984
		c0.032,0.145,0.124,0.526,0.131,2.221C391.587,101.388,391.476,104.128,391.476,107.794z"/>
	<path class="st0" d="M258.766,355.486c0-8.424-1.952-16.367-5.796-23.608l-0.946-1.787h-19.462l2.819,5.013
		c3.877,6.906,5.848,13.463,5.848,19.5c0,8.371-2.444,15.119-7.484,20.612c-4.947,5.414-10.96,8.042-18.377,8.042
		c-7.274,0-13.246-2.576-18.24-7.871c-5.052-5.362-7.51-11.794-7.51-19.666c0-6.216,1.886-13.213,5.598-20.789l2.372-4.842h-19.206
		l-0.867,2.063c-3.45,8.2-5.198,16.288-5.198,24.035c0,12.24,4.225,22.858,12.557,31.558c8.377,8.738,18.594,13.167,30.375,13.167
		c11.978,0,22.346-4.5,30.822-13.377C254.496,378.706,258.766,367.917,258.766,355.486z"/>
	<path class="st0" d="M184.803,314.506c8.338,8.804,18.502,13.272,30.211,13.272c12.077,0,22.504-4.389,31-13.055
		c8.462-8.64,12.753-19.251,12.753-31.552c0-12.45-4.264-23.114-12.668-31.695c-8.43-8.607-18.891-12.97-31.085-12.97
		c-11.583,0-21.708,4.422-30.099,13.134c-8.358,8.673-12.596,19.166-12.596,31.177C172.319,295.084,176.518,305.748,184.803,314.506
		z M197.057,263.986c5.039-5.309,11.071-7.884,18.43-7.884c7.063,0,13.009,2.542,18.173,7.779c5.171,5.25,7.688,11.308,7.688,18.529
		c0,7.963-2.477,14.481-7.569,19.934c-5.039,5.388-11.019,8.01-18.292,8.01c-7.188,0-13.174-2.556-18.312-7.826
		c-5.158-5.283-7.668-11.465-7.668-18.89C189.507,275.768,191.978,269.335,197.057,263.986z"/>
	<polygon class="st0" points="256.243,189.222 239.41,189.222 239.41,213.598 174.672,213.598 174.672,230.432 256.243,230.432 	"/>
	<path class="st0" d="M256.243,171.146l-19.153-8.587v-27.412l19.153-8.687V108.36l-89.24,40.572l89.24,40.244V171.146z
		 M221.847,155.726l-15.152-6.794l15.152-6.873V155.726z"/>
</g>
</svg>