<svg version="1.0" xmlns="http://www.w3.org/2000/svg"
 width="24px" height="24px" viewBox="0 0 369.000000 401.000000"
 preserveAspectRatio="xMidYMid meet">
<g transform="translate(0.000000,401.000000) scale(0.100000,-0.100000)"
fill="#000000" stroke="none">
<path d="M1726 3649 c-92 -22 -219 -80 -303 -137 -81 -55 -227 -200 -294 -292
-230 -316 -357 -715 -374 -1180 -5 -128 -7 -135 -28 -143 l-22 -9 22 -10 c22
-10 32 -43 31 -93 -1 -11 5 -58 11 -105 23 -165 30 -241 25 -255 -4 -8 -1 -15
5 -15 5 0 15 -17 20 -37 24 -91 24 -90 2 -96 -11 -3 -25 -16 -30 -30 -5 -14
-15 -27 -22 -29 -18 -6 -1 -28 22 -28 12 0 19 7 19 20 0 26 38 47 46 26 9 -24
-5 -39 -24 -24 -13 11 -15 10 -9 -11 4 -17 1 -28 -11 -37 -16 -12 -16 -13 0
-19 10 -4 18 -17 19 -29 0 -11 3 -15 6 -8 2 6 17 13 31 13 20 1 22 3 8 6 -11
3 -26 11 -34 19 -11 12 -10 14 12 14 42 0 77 -90 40 -104 -8 -3 -12 -10 -9
-16 3 -5 -2 -10 -12 -10 -14 0 -12 -3 7 -13 26 -14 42 -4 33 20 -3 7 0 13 6
13 6 0 11 -9 11 -20 0 -11 9 -29 20 -40 21 -21 27 -50 11 -50 -5 0 -17 7 -25
16 -19 18 -36 10 -36 -17 0 -24 -5 -24 -31 2 -23 23 -43 14 -52 -21 -6 -23 -3
-24 25 -9 16 9 23 8 29 -3 8 -14 80 -18 118 -7 8 2 17 -4 19 -14 2 -12 -3 -20
-17 -24 -21 -5 -29 -23 -11 -23 6 0 10 -7 10 -15 0 -8 -4 -15 -10 -15 -5 0
-10 -4 -10 -10 0 -5 7 -10 15 -10 15 0 66 -46 64 -58 -3 -21 3 -32 19 -32 10
0 22 -12 29 -30 9 -24 17 -30 41 -30 32 0 67 -30 45 -37 -7 -3 -13 -11 -13
-19 0 -8 -5 -14 -11 -14 -6 0 -8 7 -5 15 3 8 9 22 12 30 3 8 1 15 -4 15 -6 0
-14 -9 -17 -20 -7 -21 -31 -27 -37 -10 -2 7 -15 6 -36 -2 -27 -11 -34 -10 -42
1 -7 12 -11 13 -25 1 -9 -7 -14 -19 -11 -27 5 -11 -18 -19 -46 -14 -5 0 -8 -8
-8 -18 0 -25 -20 -38 -31 -20 -6 10 -9 6 -9 -13 0 -24 4 -28 29 -28 37 0 62
10 55 21 -3 5 6 9 21 9 14 0 28 -7 31 -15 4 -8 17 -15 30 -15 30 0 64 -28 64
-53 0 -10 8 -21 18 -23 9 -3 25 -19 35 -35 16 -30 42 -33 30 -4 -8 22 15 18
27 -5 6 -11 17 -20 25 -20 29 0 14 -18 -22 -28 -34 -9 -36 -11 -15 -17 23 -8
28 -20 12 -30 -5 -3 -10 -16 -10 -28 0 -20 -2 -20 -25 8 -13 17 -24 40 -25 53
0 12 -16 38 -36 57 -35 34 -64 45 -64 25 0 -5 -4 -10 -9 -10 -13 0 -19 59 -7
63 6 3 8 8 4 12 -11 12 -39 -3 -45 -24 -5 -22 -33 -18 -33 4 0 23 -54 11 -67
-15 -15 -30 -7 -43 22 -36 14 4 29 0 39 -9 18 -18 42 -19 50 -2 5 9 7 9 12 0
3 -7 15 -13 26 -13 12 0 22 -8 25 -21 3 -11 11 -18 19 -15 16 6 46 -38 38 -58
-3 -9 -17 -16 -30 -16 -18 0 -25 7 -30 28 -9 44 -13 52 -23 52 -16 0 -17 -44
-1 -58 10 -9 12 -15 3 -18 -18 -8 -54 -42 -53 -49 1 -4 -1 -9 -4 -13 -3 -3 -6
0 -6 6 0 19 -93 108 -98 94 -2 -6 -11 -12 -20 -12 -15 1 -15 2 1 14 9 7 17 25
17 40 0 28 -17 35 -26 11 -7 -16 -44 -21 -44 -6 0 13 -60 32 -73 24 -7 -4 -20
-8 -29 -8 -10 -1 -27 -12 -37 -24 -12 -14 -27 -21 -38 -18 -16 4 -15 6 5 12
27 9 29 25 3 25 -12 0 -21 9 -25 25 -7 26 -26 35 -26 11 0 -7 5 -27 11 -44 9
-27 8 -34 -10 -53 -17 -18 -24 -20 -34 -10 -9 10 -8 14 6 22 27 16 11 28 -29
22 -30 -5 -36 -3 -41 16 -6 24 -33 29 -33 6 0 -8 -4 -15 -10 -15 -5 0 -10 7
-10 15 0 8 -4 15 -9 15 -15 0 -75 63 -76 80 -1 8 -2 23 -3 33 -1 10 -10 17
-22 17 -23 0 -27 -18 -5 -26 10 -4 12 -15 8 -36 -4 -21 -1 -34 9 -42 18 -14
30 -45 22 -58 -4 -5 -19 4 -35 21 -27 30 -29 30 -39 12 -13 -26 -13 -31 5 -31
17 0 20 -16 5 -25 -18 -11 -11 -35 10 -35 11 0 20 4 20 8 0 4 16 15 35 24 19
8 35 14 35 11 0 -15 -23 -43 -35 -43 -8 0 -15 -4 -15 -10 0 -5 -18 -10 -40
-10 -36 0 -40 3 -40 24 0 13 -6 26 -12 28 -8 3 -12 19 -10 41 2 22 -1 37 -7
37 -6 0 -11 14 -11 31 0 24 -3 30 -16 25 -9 -3 -21 -6 -26 -6 -6 0 -8 -3 -5
-6 4 -4 -3 -19 -14 -35 -18 -26 -19 -28 -2 -38 17 -11 17 -11 0 -22 -9 -5 -15
-14 -12 -20 10 -16 20 -10 38 21 21 34 47 40 47 10 0 -11 -7 -20 -15 -20 -9 0
-20 -19 -29 -47 -8 -27 -15 -42 -15 -34 -1 7 -7 11 -16 8 -8 -4 -17 -2 -20 3
-8 13 -35 1 -35 -16 0 -8 -7 -14 -15 -14 -8 0 -15 -5 -15 -11 0 -5 -4 -8 -9
-5 -5 3 -7 16 -4 27 5 16 2 20 -8 17 -8 -3 -13 -11 -12 -17 2 -6 -2 -11 -7
-11 -13 0 -12 11 4 33 7 9 25 17 40 17 21 0 26 5 26 25 0 14 5 25 10 25 6 0
10 -6 10 -12 0 -9 4 -8 10 2 14 22 12 40 -4 40 -8 0 -24 12 -36 28 -24 30 -90
42 -90 15 0 -8 -8 -13 -18 -11 -16 3 -17 -11 -17 -182 l0 -185 343 -3 c226 -1
342 1 342 8 0 5 -11 10 -25 10 -14 0 -25 6 -25 13 0 8 20 12 68 11 49 0 67 -4
67 -14 0 -7 -8 -14 -18 -16 -47 -7 -23 -14 46 -14 47 0 77 4 77 10 0 7 7 7 21
0 21 -12 127 -9 147 4 7 4 12 2 12 -3 0 -6 20 -11 46 -11 37 0 47 4 51 20 4
16 14 20 48 20 29 0 45 5 49 15 3 8 9 15 15 15 12 0 23 -44 11 -48 -6 -2 -10
-8 -10 -13 0 -13 378 -11 385 2 4 5 14 5 25 -1 10 -5 29 -10 42 -9 l23 0 -22
9 c-29 12 -29 27 -2 35 15 5 25 2 31 -9 6 -11 16 -15 29 -11 12 4 21 1 25 -9
5 -13 23 -16 90 -16 49 0 84 4 84 10 0 6 7 10 15 10 8 0 15 5 15 10 0 6 14 10
31 10 20 0 29 -4 26 -12 -2 -7 -16 -12 -31 -10 -14 1 -26 -2 -26 -8 0 -14 76
-13 100 2 16 10 22 10 28 1 6 -9 39 -12 106 -12 83 0 97 3 92 16 -3 8 -6 17
-6 19 0 10 -29 3 -33 -8 -3 -7 -6 -1 -6 15 -1 23 -5 27 -31 27 -29 0 -40 -13
-20 -25 18 -11 10 -26 -12 -25 -13 1 -25 1 -28 0 -27 -10 -40 -6 -40 11 0 10
-5 19 -12 19 -9 0 -9 3 1 13 10 10 14 9 22 -5 14 -25 38 -22 48 4 7 20 5 24
-17 28 -32 6 -41 30 -13 37 26 7 28 23 2 23 -10 0 -22 -7 -25 -16 -3 -8 -10
-13 -15 -10 -5 4 -4 16 2 31 13 28 57 35 57 10 0 -8 5 -15 10 -15 6 0 10 -11
10 -25 0 -36 45 -36 54 0 6 22 12 25 51 25 25 0 45 -4 45 -10 0 -5 -13 -10
-30 -10 -35 0 -43 -29 -10 -37 16 -4 18 -8 9 -20 -9 -11 -8 -16 6 -27 11 -8
16 -20 12 -30 -6 -14 4 -16 87 -16 l94 0 -9 37 c-4 21 -13 39 -18 41 -20 7
-12 42 9 42 17 0 20 -7 20 -49 0 -27 6 -53 13 -58 6 -6 51 -11 98 -12 66 -1
89 2 99 14 10 12 10 18 0 30 -8 9 -8 15 -2 15 6 0 12 -5 14 -12 3 -7 14 -9 31
-4 20 5 27 13 27 31 0 17 4 23 15 19 13 -5 13 -9 0 -34 -19 -36 -19 -40 0 -40
8 0 15 -4 15 -9 0 -6 44 -9 106 -8 92 2 108 5 120 22 14 19 15 19 20 -3 5 -17
14 -22 40 -22 27 0 34 4 34 20 0 19 0 20 19 1 17 -17 38 -18 255 -19 l236 0 0
33 c0 25 -4 32 -17 31 -10 0 -19 7 -21 17 -2 10 3 17 12 17 16 0 22 30 10 43
-7 7 -34 -17 -34 -30 0 -4 -11 -13 -25 -20 -14 -6 -25 -7 -25 -2 0 16 -29 10
-39 -8 -9 -17 -10 -17 -16 0 -4 9 -14 17 -22 17 -8 0 -13 6 -10 13 2 6 13 11
25 9 18 -3 42 23 46 48 1 5 19 7 79 9 33 1 37 4 37 26 0 16 -6 25 -15 25 -8 0
-15 -5 -15 -11 0 -5 -10 0 -22 13 -13 13 -37 24 -55 25 -28 3 -32 -1 -38 -27
-4 -16 -4 -34 0 -40 4 -6 -8 -10 -30 -10 -40 0 -45 23 -7 28 12 2 22 8 22 14
0 5 -6 8 -14 5 -11 -5 -13 0 -5 25 5 18 13 34 17 37 5 3 13 17 17 31 9 27 28
50 44 50 6 0 11 5 11 10 0 6 7 10 15 10 8 0 15 9 15 20 0 11 7 20 15 20 17 0
21 -26 4 -32 -6 -2 -9 -13 -6 -23 5 -19 5 -19 12 3 4 12 14 22 21 22 19 0 18
54 -1 74 -8 8 -15 25 -15 38 0 13 -3 18 -8 11 -4 -6 -16 -13 -27 -15 -16 -2
-19 2 -17 21 3 30 1 29 36 35 36 7 34 3 41 61 6 42 4 54 -14 74 -12 13 -33 24
-48 25 -37 1 -40 22 -3 34 20 8 30 18 30 31 0 24 -28 29 -36 6 -4 -8 -13 -15
-20 -15 -11 0 -14 -11 -12 -39 2 -37 3 -39 29 -34 37 7 46 -14 18 -40 -15 -14
-24 -17 -27 -9 -2 7 -12 12 -23 12 -11 0 -22 7 -25 15 -4 8 -16 15 -28 15 -12
0 -27 5 -34 12 -9 9 -12 7 -12 -10 0 -15 8 -24 25 -28 14 -3 25 -12 25 -19 0
-16 41 -59 65 -69 18 -7 19 -9 4 -19 -9 -7 -18 -21 -21 -32 -4 -22 21 -57 34
-49 4 3 8 -4 8 -15 0 -12 5 -21 11 -21 5 0 7 -4 4 -10 -3 -5 -15 -10 -25 -10
-13 0 -20 8 -22 28 -2 15 -8 27 -15 27 -7 0 -18 6 -24 13 -17 16 -39 15 -39
-2 0 -8 -5 -16 -12 -18 -19 -7 1 -28 27 -28 24 0 65 -27 65 -42 0 -5 -7 -8
-15 -8 -8 0 -15 7 -15 15 0 8 -7 15 -15 15 -8 0 -15 -5 -15 -10 0 -6 -8 -5
-20 2 -16 11 -22 9 -34 -7 -14 -18 -15 -18 -16 -2 0 9 -4 17 -10 17 -5 0 -10
7 -10 15 0 8 -4 15 -10 15 -5 0 -10 -16 -10 -35 0 -19 5 -35 11 -35 6 0 19
-10 28 -22 l18 -22 28 22 c34 27 45 28 45 2 0 -15 -7 -20 -29 -20 -16 0 -31
-6 -35 -15 -12 -32 -65 -5 -66 34 0 8 -8 19 -17 26 -15 11 -15 15 -4 29 16 18
4 38 -24 42 -11 2 -13 -4 -9 -24 4 -15 11 -33 17 -40 7 -9 7 -16 -1 -24 -8 -8
-13 -7 -18 5 -6 15 -9 15 -34 -3 -35 -25 -38 -25 -42 2 -2 14 -11 22 -25 23
-13 1 -23 1 -23 0 0 -9 53 -69 58 -65 4 3 8 -7 10 -21 3 -27 46 -57 57 -39 9
15 35 -1 35 -21 0 -10 5 -19 10 -19 6 0 10 -7 10 -15 0 -21 13 -19 30 5 22 30
28 24 16 -15 -11 -35 -39 -48 -50 -22 -3 6 -3 0 0 -15 4 -17 2 -28 -5 -28 -6
0 -11 7 -11 15 0 8 -4 15 -9 15 -5 0 -11 -7 -15 -15 -3 -8 -10 -15 -16 -15
-13 0 -13 27 -1 32 5 1 12 15 16 29 6 24 4 26 -27 25 -18 -1 -38 -7 -44 -15
-9 -12 -12 -11 -17 3 -7 19 -43 22 -49 4 -7 -19 -38 16 -38 41 0 12 -4 21 -10
21 -5 0 -10 -5 -10 -12 0 -9 -3 -9 -12 0 -7 7 -20 12 -30 12 -10 0 -23 11 -30
24 -6 14 -17 27 -24 30 -22 8 -27 -14 -9 -34 9 -10 14 -23 11 -29 -4 -5 -2
-12 4 -16 12 -8 13 -25 0 -45 -8 -13 -11 -12 -24 5 -9 11 -16 30 -16 43 0 12
-4 22 -10 22 -5 0 -10 -7 -10 -15 0 -17 -18 -19 -39 -6 -8 5 -10 14 -6 21 5 9
4 11 -4 6 -14 -9 -41 17 -41 38 0 10 9 16 25 16 14 0 25 5 25 10 0 6 7 10 15
10 17 0 19 9 6 29 -7 11 -12 10 -28 -6 -19 -19 -49 -20 -37 -2 3 5 -1 9 -10 9
-8 0 -16 5 -18 11 -3 9 -10 9 -27 0 -13 -7 -31 -11 -41 -8 -11 3 -17 -1 -16
-12 1 -9 -8 -17 -21 -19 -28 -4 -30 -19 -3 -27 11 -3 20 -13 20 -21 0 -7 -9
-19 -20 -26 -37 -23 -16 -56 23 -36 12 6 16 16 12 29 -5 15 -2 19 14 19 22 0
28 -14 10 -25 -7 -5 -5 -15 5 -31 9 -13 16 -28 16 -34 0 -15 -40 -12 -46 3 -3
8 -11 14 -19 14 -8 0 -15 -6 -15 -14 0 -7 -4 -13 -10 -13 -5 0 -10 -7 -10 -15
0 -8 -4 -15 -10 -15 -5 0 -10 7 -10 15 0 8 -8 15 -19 15 -10 0 -24 6 -30 14
-14 17 -93 14 -99 -3 -2 -6 -24 -11 -48 -11 -28 0 -44 -4 -44 -12 0 -9 -3 -9
-12 0 -15 15 -78 16 -78 1 0 -14 25 -39 39 -39 6 0 11 -7 11 -15 0 -8 -4 -15
-9 -15 -5 0 -12 -9 -16 -19 -6 -21 -35 -18 -35 3 0 6 -9 18 -20 26 -20 15 -27
40 -11 40 5 0 14 14 20 31 10 30 13 31 51 26 37 -5 40 -3 40 20 0 13 -4 21
-10 18 -5 -3 -16 -3 -22 2 -7 4 -16 8 -21 8 -4 0 -14 12 -22 28 -14 26 -13 27
15 27 15 0 35 3 43 6 9 3 17 -3 22 -18 7 -21 8 -20 12 10 3 23 9 32 18 28 7
-2 16 2 19 10 5 12 9 12 26 2 17 -11 22 -10 30 2 13 20 13 33 0 25 -5 -3 -10
3 -10 14 0 26 10 51 21 51 5 0 4 -11 -1 -25 -10 -26 -7 -29 23 -26 9 1 17 -3
17 -8 0 -6 -7 -11 -15 -11 -10 0 -15 -10 -15 -30 0 -25 -4 -30 -25 -30 -14 0
-25 -5 -25 -10 0 -6 -8 -14 -17 -17 -29 -11 -43 -30 -43 -57 0 -31 13 -33 32
-5 14 22 85 52 90 38 4 -11 48 1 48 13 0 5 -9 12 -20 15 -29 8 -23 53 7 53 13
0 23 -4 23 -10 0 -18 17 -10 30 15 7 14 21 25 31 25 9 0 19 5 21 10 2 6 13 12
26 13 40 3 13 57 -29 57 -24 0 -59 30 -59 51 0 6 9 8 19 4 22 -7 38 12 23 27
-14 14 -3 48 15 48 8 0 17 -8 20 -19 3 -13 17 -20 44 -24 27 -3 46 -14 60 -31
20 -25 49 -35 49 -17 0 5 9 11 20 14 13 3 18 11 14 21 -10 27 6 37 27 17 12
-11 29 -17 40 -14 22 6 24 -5 4 -30 -9 -12 -23 -17 -42 -15 -40 5 -43 -26 -4
-43 18 -8 31 -21 31 -31 0 -21 30 -24 61 -7 15 7 29 7 52 0 24 -9 34 -8 45 3
12 12 11 15 -7 21 -21 6 -29 25 -11 25 6 0 10 8 10 17 0 15 2 15 14 -2 7 -11
16 -32 20 -47 4 -19 13 -28 26 -28 21 0 28 24 10 35 -5 3 -9 18 -9 33 1 17 3
21 6 9 2 -9 9 -17 14 -17 5 0 9 -7 9 -15 0 -8 6 -15 13 -15 20 0 47 33 47 58
0 11 8 25 17 31 10 5 14 13 9 18 -5 4 -11 2 -13 -4 -3 -7 -13 -13 -24 -13 -24
0 -25 28 -1 46 13 10 15 17 6 31 -6 10 -19 20 -29 21 -13 3 -15 -1 -10 -17 4
-12 2 -21 -4 -21 -6 0 -11 5 -11 10 0 6 -9 10 -20 10 -11 0 -20 5 -20 10 0 6
-9 10 -20 10 -18 0 -19 -3 -10 -20 9 -16 8 -22 -5 -26 -8 -4 -22 0 -31 7 -13
11 -17 10 -25 -4 -13 -23 -24 -21 -37 6 -8 17 -11 18 -11 5 -1 -24 -33 -23
-62 1 l-23 19 32 36 c34 39 38 51 22 61 -5 3 -10 -1 -10 -9 0 -9 -4 -16 -10
-16 -5 0 -10 5 -10 10 0 18 -20 11 -20 -7 0 -10 -7 -26 -14 -36 -13 -17 -17
-17 -43 -4 -38 19 -61 11 -65 -21 -2 -19 -10 -28 -26 -30 -28 -4 -48 15 -57
56 -9 41 2 41 20 0 8 -18 14 -26 15 -17 0 9 7 20 16 23 9 3 13 13 10 23 -3 10
2 27 10 38 12 17 16 18 24 5 5 -8 11 -12 15 -9 7 8 -24 81 -33 76 -12 -8 -54
12 -47 23 3 5 20 10 36 10 26 0 29 3 24 21 -9 29 3 35 68 31 46 -3 56 -7 66
-28 6 -14 19 -24 31 -24 11 0 20 2 20 4 0 2 -19 25 -42 50 -27 29 -55 48 -76
52 -35 7 -54 24 -26 24 11 0 15 6 11 19 -3 12 1 18 12 17 11 -1 15 6 13 22 -2
22 1 23 30 17 18 -3 29 -3 23 2 -5 4 -16 19 -24 32 -12 21 -11 26 4 37 14 11
15 13 1 21 -13 7 -13 14 -3 50 7 23 16 45 20 49 11 11 9 44 -3 44 -15 0 -12
36 5 50 8 7 14 18 14 24 -1 6 2 19 6 30 5 11 3 33 -4 52 -13 35 -6 68 9 44 6
-10 17 -8 49 6 l41 18 -27 23 c-16 12 -36 22 -47 23 -12 0 -16 5 -12 16 3 9 6
20 6 25 0 5 9 9 20 9 13 0 20 7 20 19 0 11 3 21 8 24 4 2 2 3 -4 1 -15 -3 -22
33 -14 66 4 16 13 25 25 25 11 0 20 2 19 5 -5 26 -19 56 -26 61 -6 4 -11 22
-13 40 -4 46 -4 46 -15 29 -5 -8 -10 -10 -10 -5 0 6 6 20 14 31 10 13 13 43
12 89 -1 39 -1 60 2 48 4 -24 17 -30 27 -12 4 5 0 18 -8 27 -9 9 -19 29 -22
45 -4 15 -11 27 -16 27 -16 0 -10 47 9 70 21 25 18 70 -4 70 -21 0 -38 38 -24
55 7 8 8 20 4 27 -5 7 -7 23 -6 35 2 11 -1 24 -6 27 -6 3 -8 15 -5 26 3 11 0
20 -6 20 -6 0 -11 15 -11 33 0 19 -7 48 -16 65 -11 24 -13 36 -4 52 6 11 15
20 21 20 6 0 7 5 4 10 -9 15 -25 12 -25 -6 0 -8 -5 -12 -10 -9 -6 4 -10 14 -8
23 1 10 -6 29 -15 43 -12 17 -16 36 -12 52 5 16 2 26 -8 30 -8 3 -23 27 -33
54 -10 26 -41 93 -68 148 -28 55 -51 105 -51 110 0 6 -9 20 -20 31 -11 11 -49
62 -84 112 -149 215 -379 380 -597 431 -120 28 -286 28 -398 0z m402 -210
c627 -160 1023 -1044 847 -1891 -114 -550 -444 -962 -856 -1069 -170 -44 -374
-24 -542 54 -313 145 -575 497 -681 913 -50 196 -60 284 -60 514 1 289 35 487
125 714 229 578 698 885 1167 765z m-2086 -3233 c3 -13 1 -31 -4 -40 -7 -12
-5 -16 7 -16 8 0 15 7 15 15 0 8 5 15 10 15 6 0 10 -7 10 -15 0 -8 5 -15 10
-15 6 0 10 7 10 15 0 8 5 15 10 15 17 0 53 -38 46 -49 -4 -5 3 -9 17 -7 25 2
69 40 59 50 -3 3 5 6 17 6 19 0 22 -5 19 -32 -2 -25 -7 -32 -20 -30 -12 2 -18
-4 -18 -16 0 -10 -5 -23 -11 -29 -14 -14 -3 -33 17 -33 8 0 12 -4 9 -10 -8
-13 -52 -13 -60 0 -3 6 -2 10 4 10 6 0 8 7 5 15 -4 8 -12 15 -20 15 -8 0 -14
9 -14 19 0 17 -18 31 -41 31 -5 0 -10 -12 -10 -27 l-2 -28 -4 27 c-4 27 -35
48 -41 29 -5 -16 -22 -13 -22 4 0 8 -7 15 -15 15 -16 0 -19 28 -9 68 8 29 20
28 26 -2z"/>
<path d="M1820 3394 c-14 -3 -35 -7 -47 -9 l-23 -5 0 -385 0 -384 186 -3 c118
-2 188 1 190 7 3 6 3 178 2 384 l-3 375 -30 8 c-35 10 -239 19 -275 12z"/>
<path d="M1399 3219 c-76 -55 -202 -190 -267 -287 l-62 -93 0 -161 0 -160 38
7 c20 4 106 19 190 34 l153 26 -1 329 c0 182 -2 331 -4 333 -1 2 -23 -11 -47
-28z"/>
<path d="M2418 2905 l3 -324 32 -5 c17 -3 61 -10 97 -16 66 -11 200 -38 233
-47 16 -4 17 7 17 139 l0 143 -44 75 c-62 105 -169 234 -250 302 -38 32 -74
58 -80 58 -8 0 -10 -94 -8 -325z"/>
<path d="M1613 2383 c4 -75 7 -160 7 -190 l0 -53 42 0 41 0 -6 143 c-4 78 -7
163 -7 190 l0 47 -42 0 -41 0 6 -137z"/>
<path d="M1750 2413 c0 -60 3 -145 7 -190 l6 -82 76 5 c100 8 116 23 116 103
0 43 -5 64 -19 80 -17 18 -17 21 -2 36 24 24 22 109 -4 135 -17 17 -33 20
-100 20 l-80 0 0 -107z"/>
<path d="M2042 2343 c-18 -98 -32 -182 -32 -186 0 -5 15 -7 32 -5 24 2 34 9
36 23 7 51 13 65 28 65 16 0 19 -7 29 -62 6 -36 8 -38 45 -38 37 0 39 1 35 28
-2 15 -9 90 -15 167 -15 198 -10 185 -73 185 l-53 0 -32 -177z"/>
<path d="M2322 2503 c-28 -11 -41 -63 -48 -189 -7 -127 -6 -130 17 -158 18
-21 37 -29 70 -33 64 -7 97 22 106 95 l6 52 -42 0 c-40 0 -41 -1 -41 -32 0
-41 -13 -63 -30 -53 -10 6 -11 37 -6 129 4 66 11 125 16 130 15 15 30 -4 30
-38 0 -30 3 -34 33 -39 17 -2 36 -2 41 0 4 3 6 28 3 56 -6 65 -31 87 -96 86
-25 0 -52 -3 -59 -6z"/>
<path d="M1396 2478 c-3 -13 -7 -70 -11 -128 -3 -58 -8 -133 -12 -168 l-6 -63
34 3 c32 3 34 5 37 45 4 60 52 74 52 15 0 -41 13 -54 51 -50 19 2 33 8 33 13
-1 6 -16 88 -34 183 l-33 172 -53 0 c-48 0 -54 -3 -58 -22z"/>
<path d="M2566 2479 c-7 -23 -48 -360 -44 -364 1 -2 19 -5 38 -7 l35 -3 14 88
c11 71 17 87 30 85 13 -3 15 -14 12 -63 -9 -123 -10 -120 30 -123 l36 -3 16
123 c9 68 19 150 23 184 l6 61 -32 6 c-18 4 -35 5 -40 2 -4 -2 -10 -29 -13
-59 -6 -65 -12 -77 -33 -69 -12 4 -14 18 -8 74 6 65 5 69 -14 69 -11 0 -27 3
-36 6 -9 3 -18 0 -20 -7z"/>
<path d="M1205 2469 c-4 -6 -4 -39 0 -75 6 -59 5 -64 -13 -64 -20 0 -32 38
-32 103 0 25 -3 27 -40 27 -31 0 -40 -4 -40 -17 0 -40 42 -349 48 -354 4 -4
22 -5 40 -2 36 6 36 6 22 107 -8 54 -8 71 2 78 23 14 26 9 39 -83 l12 -91 36
7 c20 4 38 8 40 10 2 2 -7 85 -20 185 l-23 180 -33 0 c-17 0 -35 -5 -38 -11z"/>
<path d="M1878 2105 c-2 -1 -77 -5 -168 -8 -234 -8 -456 -40 -722 -103 l-108
-26 0 -44 c0 -24 1 -44 3 -44 2 0 40 14 86 30 153 56 386 113 571 140 124 18
502 24 646 11 239 -23 442 -66 661 -140 62 -21 115 -36 118 -33 9 9 6 70 -4
76 -5 3 -62 19 -127 35 -154 39 -397 78 -554 90 -131 11 -396 21 -402 16z"/>
<path d="M1620 2005 c-225 -31 -460 -95 -642 -176 -72 -31 -78 -36 -78 -64 0
-54 10 -55 90 -11 548 304 1243 314 1817 26 123 -62 132 -65 137 -45 13 48 7
56 -66 90 -161 74 -350 130 -558 166 -164 28 -542 35 -700 14z"/>
<path d="M1808 1953 l-58 -4 0 -289 0 -288 50 19 c70 27 201 26 272 -1 29 -11
54 -20 56 -20 6 0 1 569 -5 573 -12 7 -251 15 -315 10z"/>
<path d="M1300 1831 c-63 -26 -141 -62 -172 -81 l-58 -35 0 -230 0 -230 36
-60 c48 -79 119 -167 191 -236 59 -57 136 -119 147 -119 3 0 6 234 6 520 0
489 -1 520 -17 519 -10 0 -70 -21 -133 -48z"/>
<path d="M2420 1364 l0 -515 32 22 c100 72 234 225 312 359 l36 61 0 204 0
204 -27 19 c-54 38 -322 162 -350 162 -2 0 -3 -232 -3 -516z"/>
<path d="M1835 1287 c-109 -37 -186 -104 -233 -205 -22 -47 -27 -71 -27 -142
0 -76 3 -92 32 -151 76 -154 224 -234 387 -208 116 19 220 100 273 214 23 51
28 73 28 145 0 76 -3 92 -32 151 -62 125 -175 200 -313 206 -44 2 -91 -3 -115
-10z m84 -11 c9 -11 6 -22 -14 -52 -31 -46 -37 -50 -92 -59 -58 -9 -61 -20
-13 -45 22 -11 40 -25 40 -31 0 -6 -7 -36 -16 -66 -9 -30 -14 -56 -12 -58 2
-3 26 11 53 30 27 19 55 35 63 35 8 0 37 -17 65 -37 l50 -37 -6 39 c-3 22 -8
54 -12 70 -6 28 -3 32 39 54 24 14 43 28 40 33 -3 4 -27 10 -53 14 -27 3 -53
9 -58 13 -19 13 -54 81 -47 92 18 29 153 -14 210 -68 l29 -27 -27 -10 c-16 -5
-28 -13 -28 -17 0 -4 19 -19 43 -33 40 -24 42 -28 52 -93 l11 -68 16 30 16 30
7 -28 c10 -37 -1 -127 -21 -177 -19 -46 -26 -49 -43 -17 -10 18 -9 34 4 82 21
82 20 84 -23 42 -42 -41 -53 -44 -72 -22 -7 9 -27 26 -43 37 l-30 22 7 -68 7
-67 -60 -27 c-33 -15 -60 -30 -61 -33 0 -3 25 -12 55 -19 52 -12 55 -15 55
-44 0 -41 -9 -52 -53 -71 -74 -31 -167 -7 -186 47 -18 51 -15 56 49 69 33 6
60 14 60 18 -1 3 -28 18 -61 33 l-61 28 4 65 c2 36 1 65 -2 65 -3 0 -21 -16
-40 -35 -19 -19 -38 -35 -44 -35 -6 0 -25 14 -43 32 -18 17 -34 30 -37 27 -2
-2 3 -30 11 -63 12 -47 13 -63 3 -82 -7 -13 -16 -21 -21 -19 -19 13 -40 107
-37 172 l3 68 17 -30 17 -30 1 30 c1 85 11 105 61 133 52 29 61 42 30 42 -26
0 -36 17 -20 36 20 24 99 67 148 80 59 16 57 16 70 0z"/>
<path d="M585 909 c-4 -11 -13 -19 -21 -19 -8 0 -14 -7 -14 -15 0 -8 -4 -15
-10 -15 -5 0 -10 -4 -10 -10 0 -5 11 -10 23 -10 31 0 35 -5 29 -35 -5 -27 -22
-34 -22 -9 0 8 -5 12 -10 9 -8 -5 -8 -11 0 -20 7 -9 7 -21 0 -41 -10 -24 -8
-31 8 -44 15 -12 16 -19 8 -33 -8 -13 -7 -20 4 -27 12 -8 12 -10 -5 -11 -55
-2 -70 -8 -90 -32 -19 -24 -54 -40 -41 -18 8 12 -20 34 -33 27 -10 -7 8 -66
21 -66 4 0 12 -10 19 -22 10 -18 8 -24 -12 -39 -13 -10 -18 -19 -11 -19 6 0
12 -7 12 -15 0 -9 8 -19 18 -22 9 -4 22 -14 29 -22 11 -14 12 -14 13 0 0 11
12 19 35 23 44 9 46 25 3 28 -18 1 -42 2 -52 2 -20 1 -36 26 -17 26 6 0 11 9
11 20 0 11 5 20 10 20 6 0 10 9 10 20 0 11 7 20 15 20 9 0 15 -9 15 -25 0 -29
7 -32 27 -7 13 15 14 14 9 -13 -3 -16 -3 -24 0 -17 8 17 34 15 34 -3 0 -8 9
-15 20 -15 11 0 20 7 20 15 0 8 7 15 15 15 23 0 18 -15 -15 -40 -35 -27 -38
-40 -10 -40 11 0 20 6 20 13 0 8 4 7 10 -3 8 -13 11 -13 19 -1 12 19 41 6 41
-19 0 -13 7 -20 20 -20 11 0 20 5 20 10 0 6 9 10 20 10 11 0 20 7 20 15 0 8
-4 15 -10 15 -5 0 -10 6 -10 14 0 10 -13 16 -37 18 -27 2 -39 8 -41 22 -6 27
12 40 31 22 9 -9 27 -16 41 -16 18 0 26 -5 26 -17 1 -17 1 -17 14 0 13 17 51
14 40 -4 -3 -5 4 -9 15 -9 16 0 21 6 21 29 0 16 -7 34 -15 41 -8 7 -15 19 -15
26 0 8 -7 14 -15 14 -8 0 -15 7 -15 15 0 8 5 15 10 15 6 0 8 11 4 25 -4 18 -1
32 11 45 23 26 38 26 30 0 -4 -11 -2 -20 4 -20 6 0 11 11 11 25 0 16 -6 25
-16 25 -24 0 -12 35 14 38 15 2 22 -2 22 -12 0 -21 20 -20 36 2 21 27 17 32
-22 32 -33 0 -36 2 -32 25 3 14 1 25 -3 25 -5 0 -9 -4 -9 -10 0 -5 -9 -10 -19
-10 -11 0 -22 -6 -24 -12 -4 -10 -8 -9 -16 2 -16 24 -24 4 -12 -31 15 -44 14
-69 -4 -69 -17 0 -20 -16 -4 -25 7 -5 4 -14 -7 -27 -16 -16 -16 -20 -4 -28 18
-11 22 -50 5 -50 -7 0 -18 7 -25 15 -10 12 -16 13 -26 4 -11 -9 -14 -5 -14 23
0 22 7 38 20 48 23 17 26 40 5 40 -9 0 -12 6 -9 18 5 16 5 16 -9 0 -9 -11 -28
-18 -51 -18 -41 0 -48 -17 -16 -40 23 -17 28 -70 6 -70 -7 0 -16 -9 -19 -21
-5 -18 -8 -19 -26 -7 -15 9 -17 16 -9 25 5 7 14 10 19 7 5 -2 11 6 15 20 7 28
-14 56 -40 56 -9 0 -16 7 -16 15 0 8 -9 23 -20 32 -33 29 -25 43 25 43 32 0
47 -5 51 -15 5 -13 9 -13 22 -3 12 10 16 10 19 1 6 -17 21 -16 39 2 9 8 20 15
25 15 5 0 9 -7 9 -15 0 -8 7 -15 15 -15 17 0 20 16 6 25 -6 3 -6 18 -1 37 12
39 6 48 -31 48 -29 0 -39 13 -19 25 15 10 12 25 -6 25 -9 0 -18 9 -21 20 -3
11 -9 17 -14 14 -12 -7 -11 -64 1 -64 6 0 10 -11 10 -25 0 -14 -4 -25 -10 -25
-5 0 -10 7 -10 15 0 20 -20 19 -36 -2 -8 -11 -13 -13 -14 -5 0 6 -7 12 -16 12
-8 0 -12 -4 -9 -10 3 -5 2 -10 -3 -10 -5 0 -9 20 -10 44 0 35 3 43 14 39 8 -3
14 -9 14 -14 0 -5 7 -9 16 -9 8 0 13 4 10 9 -4 5 0 11 6 14 19 6 4 18 -36 27
-30 7 -36 5 -41 -11z"/>
<path d="M286 778 c-6 -13 2 -27 28 -51 38 -36 46 -57 21 -57 -8 0 -15 7 -15
16 0 9 -7 14 -17 12 -10 -2 -17 -11 -15 -20 1 -9 -2 -19 -8 -23 -5 -3 -10 1
-10 9 0 9 -4 16 -9 16 -16 0 -24 -21 -12 -33 20 -20 12 -27 -29 -27 -29 0 -42
-5 -50 -20 -15 -27 -5 -40 30 -40 18 0 34 8 44 22 9 12 19 19 22 15 9 -9 33
24 34 46 0 28 20 19 20 -9 0 -20 4 -25 16 -20 9 3 18 6 20 6 2 0 4 7 4 15 0 9
9 15 25 15 20 0 25 5 25 25 0 19 -5 25 -21 25 -17 0 -20 5 -17 24 5 27 -7 36
-47 36 -14 0 -25 7 -28 18 -4 16 -4 16 -11 0z"/>
<path d="M1 603 c0 -38 3 -62 6 -55 5 14 33 17 33 3 0 -5 -9 -13 -20 -16 -11
-3 -20 -11 -20 -16 0 -6 4 -7 10 -4 14 8 13 -21 -2 -62 -10 -26 -9 -35 1 -45
11 -10 14 -10 18 -1 2 7 20 15 39 19 19 3 34 12 34 20 0 8 9 14 20 14 11 0 20
5 20 10 0 6 -7 10 -15 10 -8 0 -15 6 -15 13 0 9 -3 8 -9 -2 -5 -7 -14 -11 -20
-7 -7 5 -9 1 -5 -8 4 -11 0 -16 -15 -16 -12 0 -21 5 -21 10 0 6 5 10 10 10 6
0 10 11 10 25 0 14 4 25 9 25 5 0 11 9 14 20 6 23 37 27 37 5 0 -8 9 -15 20
-15 11 0 20 6 20 13 0 25 -36 47 -93 58 -53 11 -56 13 -51 35 4 15 2 24 -5 24
-7 0 -11 -24 -10 -67z"/>
</g>
</svg>
